<?xml version="1.0" standalone="no"?>
<!DOCTYPE svg PUBLIC "-//W3C//DTD SVG 20010904//EN"
 "http://www.w3.org/TR/2001/REC-SVG-20010904/DTD/svg10.dtd">
<svg version="1.0" xmlns="http://www.w3.org/2000/svg"
 width="512.000000pt" height="512.000000pt" viewBox="0 0 512.000000 512.000000"
 preserveAspectRatio="xMidYMid meet">

<g transform="translate(0.000000,512.000000) scale(0.100000,-0.100000)"
fill="rgb(56, 56, 56)" stroke="none">
<path d="M1810 4820 l0 -300 750 0 750 0 0 300 0 300 -750 0 -750 0 0 -300z"/>
<path d="M650 2410 l0 -2410 1910 0 1910 0 0 2410 0 2410 -430 0 -430 0 0
-300 0 -300 -1050 0 -1050 0 0 300 0 300 -430 0 -430 0 0 -2410z m3128 1237
l102 -102 -253 -253 -252 -252 -190 190 -190 190 105 105 105 105 80 -80 c44
-44 85 -80 90 -80 6 0 73 63 150 140 77 77 142 140 145 140 3 0 51 -46 108
-103z m-1058 -397 l0 -150 -740 0 -740 0 0 150 0 150 740 0 740 0 0 -150z
m1058 -443 l102 -102 -253 -253 -252 -252 -190 190 -190 190 105 105 105 105
80 -80 c44 -44 85 -80 90 -80 6 0 73 63 150 140 77 77 142 140 145 140 3 0 51
-46 108 -103z m-1058 -397 l0 -150 -740 0 -740 0 0 150 0 150 740 0 740 0 0
-150z m1058 -443 l102 -102 -253 -253 -252 -252 -190 190 -190 190 105 105
105 105 85 -85 85 -85 145 145 c80 80 147 145 150 145 3 0 51 -46 108 -103z
m-1058 -397 l0 -150 -740 0 -740 0 0 150 0 150 740 0 740 0 0 -150z m1058
-443 l102 -102 -253 -253 -252 -252 -190 190 -190 190 105 105 105 105 85 -85
85 -85 145 145 c80 80 147 145 150 145 3 0 51 -46 108 -103z m-1058 -397 l0
-150 -740 0 -740 0 0 150 0 150 740 0 740 0 0 -150z"/>
</g>
</svg>
