<?xml version="1.0" standalone="no"?>
<!DOCTYPE svg PUBLIC "-//W3C//DTD SVG 20010904//EN"
 "http://www.w3.org/TR/2001/REC-SVG-20010904/DTD/svg10.dtd">
<svg version="1.0" xmlns="http://www.w3.org/2000/svg"
 width="512.000000pt" height="512.000000pt" viewBox="0 0 512.000000 512.000000"
 preserveAspectRatio="xMidYMid meet">

<g transform="translate(0.000000,512.000000) scale(0.100000,-0.100000)"
fill="rgb(56, 56, 56" stroke="none">
<path d="M1279 5101 c-133 -43 -222 -145 -248 -286 -15 -83 -15 -4427 0 -4510
26 -144 120 -249 258 -289 49 -14 189 -16 1271 -16 1082 0 1222 2 1271 16 138
40 232 145 258 289 15 80 15 4412 1 4504 -24 146 -119 254 -259 295 -49 14
-189 16 -1275 15 -1145 0 -1224 -1 -1277 -18z m2512 -163 c50 -17 83 -45 110
-91 22 -39 24 -55 27 -224 l4 -183 -1372 0 -1372 0 4 183 c3 170 5 185 28 225
25 44 54 69 105 89 43 17 2417 18 2466 1z m139 -2378 l0 -1700 -1370 0 -1370
0 0 1700 0 1700 1370 0 1370 0 0 -1700z m-2 -2062 c-3 -170 -5 -186 -27 -225
-27 -46 -60 -74 -110 -91 -49 -17 -2413 -17 -2462 0 -50 17 -83 45 -110 91
-22 39 -24 55 -27 225 l-4 182 1372 0 1372 0 -4 -182z"/>
<path d="M2095 4768 c-51 -29 -61 -93 -20 -133 l24 -25 461 0 461 0 24 25 c42
41 31 105 -22 133 -31 17 -899 16 -928 0z"/>
<path d="M2450 4089 c-236 -27 -474 -160 -624 -350 -292 -370 -268 -890 58
-1228 88 -90 167 -148 277 -201 141 -67 219 -84 399 -84 180 0 258 17 399 84
113 54 190 111 282 207 321 336 344 855 53 1222 -88 111 -187 190 -319 255
-125 61 -191 81 -320 96 -100 11 -99 11 -205 -1z m285 -186 c269 -60 489 -274
566 -549 30 -104 32 -276 5 -379 -94 -361 -422 -603 -786 -582 -123 7 -194 27
-308 83 -373 186 -526 649 -338 1022 162 321 509 484 861 405z"/>
<path d="M2501 3726 c-17 -18 -24 -41 -28 -85 l-6 -61 -71 0 c-83 0 -135 -20
-185 -71 -50 -49 -75 -112 -75 -184 2 -150 118 -255 281 -255 l53 0 0 -85 0
-85 -100 0 c-94 0 -103 -2 -125 -25 -17 -16 -25 -35 -25 -57 1 -67 39 -88 159
-88 l91 0 0 -42 c0 -88 55 -144 118 -122 34 12 62 66 62 122 l0 42 58 0 c157
0 274 106 276 249 1 80 -26 142 -84 194 -56 50 -103 67 -189 67 l-61 0 0 84 0
84 101 4 c96 3 102 4 125 31 31 37 31 81 -1 112 -22 23 -31 25 -123 25 l-99 0
-6 61 c-7 76 -33 109 -87 109 -26 0 -43 -7 -59 -24z m-31 -401 l0 -85 -45 0
c-59 0 -100 22 -113 60 -13 35 -8 56 21 88 17 18 31 22 79 22 l58 0 0 -85z
m308 -271 c35 -24 44 -59 27 -100 -16 -39 -46 -54 -111 -54 l-44 0 0 85 0 85
53 0 c32 0 61 -6 75 -16z"/>
<path d="M2523 2032 c-27 -14 -396 -445 -456 -532 -23 -33 -21 -72 4 -104 20
-25 24 -26 125 -26 l104 0 0 -130 c0 -154 11 -191 60 -209 20 -6 101 -11 200
-11 99 0 180 5 200 11 49 18 60 55 60 209 l0 130 104 0 c101 0 105 1 125 26
25 32 27 71 4 104 -34 49 -425 515 -441 526 -32 22 -57 24 -89 6z m163 -353
l112 -134 -50 -7 c-31 -4 -59 -14 -74 -29 -22 -21 -24 -29 -26 -168 l-3 -146
-85 0 -85 0 -3 146 c-2 139 -4 147 -26 168 -15 14 -43 25 -74 29 l-50 7 115
138 c64 76 120 136 126 134 6 -2 61 -64 123 -138z"/>
<path d="M1489 497 c-46 -35 -50 -88 -10 -128 l29 -29 192 0 c193 0 220 4 247
39 21 27 15 79 -12 106 -24 25 -25 25 -227 25 -144 -1 -208 -4 -219 -13z"/>
<path d="M2245 485 c-35 -34 -33 -78 4 -116 l29 -29 282 0 282 0 29 29 c37 38
39 82 4 116 l-24 25 -291 0 -291 0 -24 -25z"/>
<path d="M3185 485 c-27 -27 -33 -79 -12 -106 27 -35 54 -39 247 -39 l192 0
29 29 c31 31 36 59 17 94 -23 44 -34 46 -246 47 -202 0 -203 0 -227 -25z"/>
</g>
</svg>
