<?xml version="1.0" standalone="no"?>
<!DOCTYPE svg PUBLIC "-//W3C//DTD SVG 20010904//EN"
 "http://www.w3.org/TR/2001/REC-SVG-20010904/DTD/svg10.dtd">
<svg version="1.0" xmlns="http://www.w3.org/2000/svg"
 width="512.000000pt" height="512.000000pt" viewBox="0 0 512.000000 512.000000"
 preserveAspectRatio="xMidYMid meet">

<g transform="translate(0.000000,512.000000) scale(0.100000,-0.100000)"
fill="rgb(56, 56, 56)" stroke="none">
<path d="M765 5085 c-16 -15 -25 -36 -25 -55 0 -19 9 -40 25 -55 22 -23 31
-25 127 -25 l103 0 -158 -158 c-124 -124 -157 -163 -157 -184 0 -82 20 -88
310 -88 l242 0 29 29 c36 36 37 73 4 106 -23 24 -29 25 -165 25 -77 0 -140 3
-140 8 0 4 68 75 150 157 139 139 150 152 150 187 0 28 -6 42 -26 57 -25 20
-39 21 -236 21 -208 0 -209 0 -233 -25z"/>
<path d="M3915 5085 c-16 -15 -25 -36 -25 -55 0 -19 9 -40 25 -55 22 -23 31
-25 127 -25 l102 0 -157 -158 c-161 -162 -169 -175 -146 -225 19 -43 46 -47
295 -47 284 0 304 6 304 89 0 16 -10 37 -23 49 -22 21 -33 22 -167 22 l-144 0
151 153 c83 83 154 162 158 175 9 32 -11 77 -41 91 -16 7 -99 11 -230 11 -204
0 -205 0 -229 -25z"/>
<path d="M2505 4855 c-32 -31 -32 -72 1 -116 36 -48 62 -101 72 -147 l9 -39
-108 -6 c-338 -20 -666 -154 -909 -374 -255 -230 -409 -497 -481 -833 -19 -88
-23 -136 -23 -290 1 -206 17 -315 73 -477 17 -48 29 -88 28 -88 -138 -74 -186
-131 -294 -347 -108 -217 -186 -508 -212 -788 -14 -149 -14 -417 0 -516 22
-160 100 -346 199 -477 47 -63 48 -63 33 -98 -26 -61 -53 -152 -53 -176 0 -33
43 -73 77 -73 47 0 69 24 92 100 81 266 323 564 711 876 661 531 1279 966
1818 1278 188 109 266 121 380 56 64 -37 103 -90 176 -235 70 -139 110 -248
147 -400 53 -217 63 -315 63 -595 0 -231 -2 -262 -22 -333 -53 -191 -155 -336
-347 -498 -66 -55 -128 -109 -137 -121 -26 -29 -23 -74 7 -103 43 -44 70 -35
196 70 62 52 116 95 119 95 4 0 19 -36 34 -79 15 -44 36 -87 46 -96 28 -25 88
-16 113 17 19 25 19 32 9 79 -7 28 -28 87 -47 131 l-34 80 33 44 c50 65 120
207 149 300 41 130 50 233 44 479 -8 299 -38 485 -117 729 -46 141 -159 375
-221 459 -36 48 -129 125 -168 139 -6 2 2 39 19 88 57 167 74 276 74 480 0
154 -4 202 -23 290 -63 296 -188 533 -391 743 -129 134 -240 218 -390 296
-132 68 -252 111 -394 140 -54 11 -100 22 -102 24 -2 2 -8 26 -13 53 -19 100
-97 250 -141 274 -32 17 -70 11 -95 -15z m63 -502 c-5 -21 -27 -76 -49 -122
-46 -98 -48 -123 -14 -156 26 -27 63 -32 97 -14 24 13 88 145 118 246 l22 72
31 -6 c602 -107 1044 -571 1118 -1173 14 -114 7 -294 -16 -405 -21 -103 -75
-266 -89 -270 -6 -1 -41 -7 -78 -13 -36 -5 -93 -24 -126 -40 -159 -81 -595
-353 -869 -543 -79 -55 -148 -99 -154 -99 -5 0 -54 31 -109 70 -234 166 -743
486 -902 567 -42 21 -96 39 -136 45 -37 6 -72 12 -78 13 -6 2 -25 45 -42 97
-121 366 -85 752 101 1085 116 207 311 401 517 513 191 104 409 165 607 169
l61 1 -10 -37z m-1085 -2033 c212 -111 947 -585 931 -599 -5 -4 -110 -84 -234
-176 -260 -194 -565 -434 -695 -545 -171 -147 -354 -346 -458 -498 l-36 -53
-31 43 c-45 62 -98 178 -122 267 -15 58 -22 119 -25 252 -12 407 57 760 208
1064 32 66 76 142 96 169 89 117 231 147 366 76z"/>
<path d="M1951 3443 c-122 -43 -211 -220 -150 -297 45 -57 139 -19 139 56 0
45 57 98 105 98 48 0 105 -53 105 -98 0 -47 34 -82 80 -82 105 0 106 155 0
260 -74 75 -178 98 -279 63z"/>
<path d="M2981 3443 c-122 -43 -211 -220 -150 -297 45 -57 139 -19 139 56 0
45 57 98 105 98 48 0 105 -53 105 -98 0 -47 34 -82 80 -82 105 0 106 155 0
260 -74 75 -178 98 -279 63z"/>
<path d="M2145 2655 c-35 -34 -33 -79 3 -113 35 -33 157 -94 232 -116 88 -27
214 -32 306 -11 90 19 251 91 289 129 33 33 33 79 0 111 -34 35 -61 31 -157
-20 -192 -102 -359 -99 -537 9 -69 42 -103 45 -136 11z"/>
<path d="M85 4315 c-17 -16 -25 -35 -25 -59 0 -51 36 -76 108 -76 l56 0 -107
-109 c-91 -92 -107 -113 -107 -140 0 -21 9 -41 25 -56 24 -25 25 -25 228 -25
190 0 205 1 225 20 28 27 37 62 21 92 -22 41 -40 47 -133 48 l-90 0 107 109
c109 110 118 126 96 174 -18 41 -49 47 -220 47 -156 0 -160 -1 -184 -25z"/>
<path d="M4675 4316 c-33 -33 -33 -79 0 -111 20 -21 34 -25 81 -25 l58 0 -101
-103 c-105 -106 -124 -139 -102 -179 24 -46 33 -47 247 -48 202 0 203 0 227
25 16 15 25 36 25 55 0 19 -9 40 -25 55 -22 23 -32 25 -116 25 l-93 0 107 109
c116 117 128 143 88 192 -19 23 -24 24 -195 27 l-176 3 -25 -25z"/>
<path d="M504 3667 c-58 -50 -20 -137 60 -137 l41 0 -84 -84 c-71 -71 -84 -90
-84 -117 0 -23 8 -39 27 -56 26 -22 33 -23 202 -23 172 0 175 0 199 25 16 15
25 36 25 55 0 19 -9 40 -25 55 -21 22 -33 25 -92 25 l-68 0 83 83 c69 70 82
88 82 115 0 22 -8 41 -25 57 -23 24 -28 25 -169 25 -138 0 -146 -1 -172 -23z"/>
<path d="M4295 3665 c-53 -52 -15 -135 61 -135 l38 0 -82 -84 c-93 -94 -103
-126 -57 -171 24 -25 27 -25 199 -25 169 0 176 1 202 23 37 33 37 81 0 114
-22 19 -39 23 -88 23 l-62 0 82 84 c84 85 92 103 71 149 -18 40 -50 47 -200
47 -135 0 -141 -1 -164 -25z"/>
</g>
</svg>
