<?xml version="1.0" standalone="no"?>
<!DOCTYPE svg PUBLIC "-//W3C//DTD SVG 20010904//EN"
 "http://www.w3.org/TR/2001/REC-SVG-20010904/DTD/svg10.dtd">
<svg version="1.0" xmlns="http://www.w3.org/2000/svg"
 width="421.000000pt" height="410.000000pt" viewBox="0 0 421.000000 410.000000"
 preserveAspectRatio="xMidYMid meet">

<g transform="translate(0.000000,410.000000) scale(0.100000,-0.100000)"
fill="rgb(56, 56, 56)" stroke="none">
<path d="M1206 3473 c-15 -24 -58 -52 -174 -115 -89 -48 -158 -91 -163 -103
-7 -17 -209 -1130 -226 -1246 l-5 -36 82 -17 c45 -10 83 -16 85 -14 2 2 43
167 90 368 47 200 87 365 89 368 18 17 18 -300 1 -369 -6 -24 -2 -27 127 -82
73 -31 136 -57 139 -57 3 0 33 61 65 135 32 74 61 135 64 135 3 0 32 -61 64
-135 32 -74 61 -135 64 -135 2 0 65 26 139 57 129 55 134 59 128 83 -18 68
-17 385 1 368 2 -3 42 -166 88 -362 46 -197 88 -362 93 -367 11 -11 163 21
163 34 0 11 -217 1229 -225 1264 -4 15 -48 45 -162 107 -104 57 -165 97 -179
117 l-21 30 -7 -153 c-13 -274 -49 -523 -101 -686 -41 -129 -46 -130 -83 -21
-57 174 -94 416 -110 719 l-7 145 -19 -32z m524 -418 l0 -35 -71 0 -71 0 64
34 c34 19 66 35 71 35 4 1 7 -15 7 -34z"/>
<path d="M2736 3398 c-2 -18 -12 -78 -21 -133 -9 -55 -19 -143 -22 -195 -5
-91 -3 -104 40 -265 25 -94 48 -185 52 -202 l7 -33 204 0 204 0 6 28 c3 15 26
104 51 197 53 197 56 243 24 431 -12 67 -21 140 -21 163 l0 41 -50 0 -50 0 0
-58 c0 -130 -68 -303 -144 -368 -40 -34 -81 -49 -57 -20 10 12 5 24 -23 64
-20 27 -45 70 -56 96 -24 54 -50 179 -50 242 l0 44 -45 0 c-42 0 -44 -1 -49
-32z"/>
<path d="M1265 3379 c-4 -11 -4 -36 0 -55 7 -40 29 -45 68 -14 14 11 35 20 47
20 12 0 33 -9 47 -20 39 -31 61 -26 68 14 4 19 4 44 0 55 -8 27 -48 28 -75 1
-11 -11 -29 -20 -40 -20 -11 0 -29 9 -40 20 -27 27 -67 26 -75 -1z"/>
<path d="M1370 3170 c0 -5 5 -10 10 -10 6 0 10 5 10 10 0 6 -4 10 -10 10 -5 0
-10 -4 -10 -10z"/>
<path d="M1370 3035 c0 -8 5 -15 10 -15 6 0 10 7 10 15 0 8 -4 15 -10 15 -5 0
-10 -7 -10 -15z"/>
<path d="M1370 2905 c0 -8 5 -15 10 -15 6 0 10 7 10 15 0 8 -4 15 -10 15 -5 0
-10 -7 -10 -15z"/>
<path d="M2747 2478 c-41 -57 -65 -101 -88 -168 -22 -64 -23 -74 -30 -740 -8
-726 -12 -789 -63 -938 -30 -87 -56 -132 -97 -167 l-31 -25 144 0 c176 0 245
11 325 50 164 81 220 275 224 775 1 99 5 212 9 250 5 49 7 -2 9 -165 3 -445
24 -629 84 -750 49 -98 118 -140 262 -156 l60 -7 -31 26 c-45 38 -92 133 -120
244 -31 121 -33 178 -43 948 -9 668 -7 652 -93 788 l-43 67 -227 0 -227 0 -24
-32z"/>
<path d="M1331 2213 c-24 -54 -46 -101 -50 -106 -4 -4 -75 22 -157 58 -82 36
-154 63 -160 61 -17 -6 -53 -197 -63 -331 -24 -320 48 -596 193 -740 57 -57
124 -99 170 -107 15 -2 21 5 27 33 12 54 56 454 70 632 7 86 16 157 19 157 3
0 12 -69 18 -152 27 -329 66 -656 80 -670 4 -3 32 3 62 14 82 31 175 128 228
238 75 154 107 367 91 589 -13 166 -47 341 -68 341 -4 0 -74 -29 -155 -65 -82
-36 -151 -63 -155 -60 -4 2 -27 49 -51 104 -24 56 -46 101 -50 101 -3 0 -26
-44 -49 -97z"/>
</g>
</svg>
